# xmcd
#
# Track frame offsets:
#	150
#	22755
#	39266
#	56156
#	74054
#	97725
#	127002
#	144619
#	164749
#	184828
#	204663
#	225429
#	242913
#	263468
#	282781
#	304709
#
# Disc length: 4360 seconds
#
# Revision: 0
# Processed by: cddbd v1.5.2PL0 Copyright (c) Steve Scherf et al.
# Submitted via: EasyCDDAExtractor 15.2.1.1
#
DISCID=e0110610
DTITLE=Various Artist - Diva 6 Disc 3
DYEAR=2011
DGENRE=
TTITLE0=林憶蓮 - 依然
TTITLE1=林憶蓮 - 逃離鋼鐵森林
TTITLE2=關淑怡 - 難得有情人
TTITLE3=劉美君/林保怡 - 偷窺
TTITLE4=劉美君 - 事後
TTITLE5=劉美君 - 玩玩 Remix
TTITLE6=葉倩文 - 焚心似火
TTITLE7=葉倩文 - 他
TTITLE8=關淑怡 - 當世界無玫瑰
TTITLE9=林憶蓮 - 傾斜
TTITLE10=林憶蓮 - 你令我性感
TTITLE11=劉美君 - 依依
TTITLE12=葉倩文 - 秋去秋來
TTITLE13=關淑怡 - 夜迷宮
TTITLE14=林憶蓮 - 情人的眼淚
TTITLE15=林憶蓮 - 愛上一個不回家的人
EXTD=
EXTT0=
EXTT1=
EXTT2=
EXTT3=
EXTT4=
EXTT5=
EXTT6=
EXTT7=
EXTT8=
EXTT9=
EXTT10=
EXTT11=
EXTT12=
EXTT13=
EXTT14=
EXTT15=
PLAYORDER=
